<?xml version="1.0" encoding="UTF-8"?>
<svg width="124px" height="20px" viewBox="0 0 124 20" version="1.1" xmlns="http://www.w3.org/2000/svg" xmlns:xlink="http://www.w3.org/1999/xlink">
    <title>main_review_bg@2x</title>
    <g id="MW,PC" stroke="none" stroke-width="1" fill="none" fill-rule="evenodd" opacity="0.200000003">
        <g id="별점-Asset" transform="translate(0.000000, -70.000000)" fill="#000000">
            <g id="main_review_bg" transform="translate(0.000000, 70.000000)">
                <g id="Rating-/-Small-/-Normal" transform="translate(0.000000, 0.000000)">
                    <polygon id="Star-Copy-4" points="10 15 4.12214748 18.0901699 5.24471742 11.545085 0.489434837 6.90983006 7.06107374 5.95491503 10 -8.8817842e-16 12.9389263 5.95491503 19.5105652 6.90983006 14.7552826 11.545085 15.8778525 18.0901699"></polygon>
                </g>
                <g id="Rating-/-Small-/-Normal-Copy" transform="translate(26.000000, 0.000000)">
                    <polygon id="Star-Copy-4" points="10 15 4.12214748 18.0901699 5.24471742 11.545085 0.489434837 6.90983006 7.06107374 5.95491503 10 -8.8817842e-16 12.9389263 5.95491503 19.5105652 6.90983006 14.7552826 11.545085 15.8778525 18.0901699"></polygon>
                </g>
                <g id="Rating-/-Small-/-Normal-Copy-2" transform="translate(52.000000, 0.000000)">
                    <polygon id="Star-Copy-4" points="10 15 4.12214748 18.0901699 5.24471742 11.545085 0.489434837 6.90983006 7.06107374 5.95491503 10 -8.8817842e-16 12.9389263 5.95491503 19.5105652 6.90983006 14.7552826 11.545085 15.8778525 18.0901699"></polygon>
                </g>
                <g id="Rating-/-Small-/-Normal-Copy-3" transform="translate(78.000000, 0.000000)">
                    <polygon id="Star-Copy-4" points="10 15 4.12214748 18.0901699 5.24471742 11.545085 0.489434837 6.90983006 7.06107374 5.95491503 10 -8.8817842e-16 12.9389263 5.95491503 19.5105652 6.90983006 14.7552826 11.545085 15.8778525 18.0901699"></polygon>
                </g>
                <g id="Rating-/-Small-/-Normal-Copy-4" transform="translate(104.000000, 0.000000)">
                    <polygon id="Star-Copy-4" points="10 15 4.12214748 18.0901699 5.24471742 11.545085 0.489434837 6.90983006 7.06107374 5.95491503 10 -8.8817842e-16 12.9389263 5.95491503 19.5105652 6.90983006 14.7552826 11.545085 15.8778525 18.0901699"></polygon>
                </g>
            </g>
        </g>
    </g>
</svg>