<?xml version="1.0" encoding="utf-8"?>
<!-- Generator: Adobe Illustrator 27.0.0, SVG Export Plug-In . SVG Version: 6.00 Build 0)  -->
<svg version="1.1" id="Layer_2_00000088106741303615246170000011016508350790802563_"
	 xmlns="http://www.w3.org/2000/svg" xmlns:xlink="http://www.w3.org/1999/xlink" x="0px" y="0px" viewBox="0 0 28 38"
	 style="enable-background:new 0 0 28 38;" xml:space="preserve">
<style type="text/css">
	.st0{fill:#4285F4;}
	.st1{fill:#F4B400;}
	.st2{fill:#34A853;}
	.st3{fill:#EA4335;}
</style>
<g id="Layer_1-2">
	<path class="st0" d="M17.6,1.5c-1-1-2.2-1.5-3.6-1.5s-2.6,0.5-3.6,1.5c-1,1-1.5,2.2-1.5,3.5v12.5c0,1.5,0.5,2.7,1.4,3.8
		s2.2,1.5,3.6,1.5s2.6-0.5,3.6-1.5c1-1,1.5-2.3,1.5-3.8V5C19.1,3.6,18.6,2.4,17.6,1.5z"/>
	<path class="st1" d="M6.2,25.2C4.1,23.1,3,20.6,3,17.6H0c0,3.5,1.2,6.6,3.6,9.2C3.8,27,4,27.2,4.3,27.4l2.1-2.1
		C6.3,25.3,6.3,25.2,6.2,25.2L6.2,25.2z"/>
	<path class="st2" d="M12.5,31.2V38h3v-6.8C14.4,31.3,13.4,31.3,12.5,31.2L12.5,31.2z"/>
	<path class="st3" d="M24.4,26.8c2.4-2.6,3.6-5.7,3.6-9.2h-3c0,3-1.1,5.6-3.2,7.6c-2.1,2.1-4.8,3.1-7.8,3.1s-5.5-1-7.7-3l-2.1,2.1
		c2.3,2.2,5,3.5,8.2,3.8l0,0c0.9,0.1,1.9,0.1,3,0l0,0C19,30.8,22,29.4,24.4,26.8L24.4,26.8z"/>
</g>
</svg>
